<svg class="icon" style="width: 4.5em;height: 4.5em;vertical-align: middle;fill: currentColor;overflow: hidden;" viewBox="0 0 1024 1024" version="1.1" xmlns="http://www.w3.org/2000/svg" p-id="62280"><path d="M908.243478 683.161353c0 224.58744-177.592271 297.30628-396.243478 297.30628s-396.243478-73.213527-396.243478-297.30628c0-180.0657 114.272464-360.626087 273.066666-424.935266C319.072464 184.517874 334.902415 102.4 423.945894 102.4h21.766183c12.861836-28.197101 38.585507-47.489855 68.266667-47.489855 30.175845 0 55.899517 19.292754 68.266667 47.489855h17.314009c88.548792 0 104.378744 82.117874 35.617392 155.331401 158.299517 64.309179 273.066667 245.364251 273.066666 425.429952z" fill="#FF4E47" p-id="62281"></path><path d="M511.505314 986.898551c-265.646377 0-406.137198-106.852174-406.137198-308.189372 0-181.055072 110.809662-359.142029 265.151691-429.38744-31.165217-38.090821-42.542995-79.644444-30.670532-112.788406 10.883092-31.659903 41.553623-49.468599 83.601933-49.468599h15.829951c15.335266-29.681159 43.532367-47.489855 74.202899-47.489855 30.670531 0 58.372947 17.808696 74.202899 47.489855h11.377777c42.048309 0 72.718841 18.303382 83.601933 49.468599 11.872464 33.143961 0 74.697585-30.670532 112.788406 154.342029 70.245411 265.151691 248.332367 265.151691 429.38744 0.494686 201.831884-139.996135 308.189372-405.642512 308.189372zM423.945894 109.82029c-33.638647 0-57.878261 12.861836-65.793237 35.617391-9.89372 27.702415 4.452174 66.287923 36.606763 100.915942 3.957488 3.957488 3.957488 10.883092 0.494686 15.335266-0.989372 1.484058-2.47343 1.978744-3.957488 2.968116-154.342029 62.825121-266.635749 236.954589-266.635748 415.041546 0 100.421256 37.596135 175.613527 111.304347 223.598067 64.803865 42.048309 157.804831 63.319807 275.540097 63.319807 117.735266 0 210.736232-21.271498 275.540097-63.319807 73.708213-47.489855 111.304348-122.682126 111.304347-223.598067 0-177.592271-112.29372-352.216425-266.635748-415.041546-4.94686-1.978744-7.42029-8.409662-5.936232-13.851208 0.494686-1.484058 1.484058-2.968116 2.47343-4.452174 32.649275-34.628019 46.500483-73.213527 36.606763-100.915942-7.914976-22.755556-32.154589-35.617391-65.793237-35.617391h-17.314009c-3.462802 0-6.925604-1.978744-8.409662-5.936232-11.377778-25.723671-34.628019-41.553623-59.857005-41.553623-25.723671 0-48.479227 15.829952-59.857005 41.553623-1.484058 3.462802-4.94686 5.936232-8.409662 5.936232h-21.271497z" fill="#A40000" p-id="62282"></path><path d="M692.0657 606.485024a29.681159 29.186473 0 1 0 59.362319 0 29.681159 29.186473 0 1 0-59.362319 0Z" fill="#FFDB00" p-id="62283"></path><path d="M711.85314 484.297585a25.228986 24.7343 0 1 0 50.457971 0 25.228986 24.7343 0 1 0-50.457971 0Z" fill="#FFDB00" p-id="62284"></path><path d="M311.652174 376.950725c9.89372-6.430918 19.78744-8.409662 28.197101 0 18.303382 18.798068-14.84058 57.383575-25.723671 72.224154-10.388406 13.851208-36.112077 52.436715-57.878261 43.532367-31.165217-12.861836 7.42029-62.825121 18.798068-76.676328 6.925604-7.914976 21.271498-29.186473 36.606763-39.080193z" fill="#FF726E" p-id="62285"></path><path d="M127.628986 726.199034s390.307246 346.280193 767.752657 0c0 0 0 233.986473-383.876329 239.922705 0 0-352.216425 11.872464-383.876328-239.922705z" fill="#F83228" p-id="62286"></path><path d="M379.918841 215.683092s185.507246 75.192271 266.141062 5.441546c0 0-65.298551 79.644444-133.070531 67.77198-67.277295-11.377778-122.18744-31.165217-133.070531-73.213526z" fill="#F83228" p-id="62287"></path><path d="M432.355556 252.289855c8.904348 1.978744 8.409662 1.978744 19.292753 3.462802 4.452174 0.494686 7.914976 3.462802 7.914976 8.409662v3.462802c0 4.94686-3.957488 9.89372-8.409662 9.89372-11.872464 0-13.851208-1.978744-19.292753-3.462802-4.452174-1.484058-7.914976-5.936232-7.42029-10.883092v-3.462802c0-4.94686 3.462802-8.409662 7.914976-7.42029z m120.703381 10.883092c-16.324638 2.47343-47.489855 1.978744-65.298551-0.989372-3.957488-0.494686-7.914976 2.968116-7.914975 8.409662v3.957488c0 5.441546 3.462802 9.89372 7.914975 10.883091 16.324638 4.452174 48.973913 3.462802 65.298551 0.989372 4.452174-0.494686 7.914976-5.936232 7.914976-11.377777v-3.957488c0-4.94686-3.462802-8.409662-7.914976-7.914976zM746.481159 484.792271c0 5.936232-1.978744 11.872464-6.430917 12.367149-9.89372 1.484058-9.399034-8.904348-9.399034-8.904348s3.462802-127.628986-99.92657-194.90628c15.829952 29.681159 41.553623 81.128502 61.835748 135.049276 31.165217 78.655072 49.963285 162.751691 49.4686 172.150724 0 9.399034-8.904348 11.377778-8.904348 11.377778-9.399034 1.484058-11.872464-7.914976-11.872464-7.914976 0.494686-9.399034-17.808696-92.011594-48.973913-170.17198-28.197101-74.697585-66.782609-143.953623-75.192271-158.794203-0.989372-0.494686-1.978744-2.968116-1.978744-5.441546 0-2.968116 0.989372-5.441546 2.47343-7.42029 0.989372-0.989372 1.484058-1.978744 2.968116-2.47343h0.494686c0.494686 0 0.494686-0.494686 0.989372-0.494686 2.47343-0.494686 4.452174-0.989372 6.925604 0.494686 2.47343 0.494686 4.94686 1.484058 7.42029 2.47343 73.708213 28.691787 134.554589 119.71401 130.102415 222.608696z" fill="#F6BF00" p-id="62288"></path><path d="M224.58744 524.36715c-4.94686 4.452174-8.904348 10.388406-11.872464 15.829951-25.228986 48.973913-47.489855 116.745894-33.638647 172.645411 4.452174 18.798068 15.335266 36.606763 32.154589 46.005797 7.914976 4.452174 18.798068 6.925604 26.713043 1.484058 6.925604-4.94686 8.409662-15.335266 6.430918-23.744927s-6.925604-15.829952-10.388406-23.744928c-11.377778-23.250242-13.356522-50.457971-9.399033-76.181642 3.957488-25.723671 12.861836-49.963285 23.250241-73.708213 3.462802-7.42029 11.872464-15.335266 12.36715-23.744928 0-8.409662-9.399034-17.31401-17.31401-19.787439-6.925604-1.978744-13.356522 0.494686-18.303381 4.94686z" fill="#FF726E" p-id="62289"></path><path d="M527.829952 624.788406m-147.911111 0a147.911111 147.911111 0 1 0 295.822222 0 147.911111 147.911111 0 1 0-295.822222 0Z" fill="#FFE479" p-id="62290"></path><path d="M528.324638 625.283092m-134.55459 0a134.554589 134.554589 0 1 0 269.109179 0 134.554589 134.554589 0 1 0-269.109179 0Z" fill="#FFD20D" p-id="62291"></path><path d="M491.717874 556.521739m-15.335265 0a15.335266 15.335266 0 1 0 30.670531 0 15.335266 15.335266 0 1 0-30.670531 0Z" fill="#F4F4F4" p-id="62292"></path><path d="M561.963285 556.521739m-15.335266 0a15.335266 15.335266 0 1 0 30.670532 0 15.335266 15.335266 0 1 0-30.670532 0Z" fill="#F4F4F4" p-id="62293"></path><path d="M588.676329 659.911111H468.962319c-3.462802 0-6.430918-2.968116-6.430918-6.430918v-4.94686c0-3.462802 2.968116-6.430918 6.430918-6.430918h119.71401c3.462802 0 6.430918 2.968116 6.430917 6.430918v4.94686c0 3.462802-2.968116 6.430918-6.430917 6.430918z" fill="#F4F4F4" p-id="62294"></path><path d="M529.808696 724.714976h-5.441546c-3.957488 0-6.925604-2.968116-6.925604-6.925604v-116.745894c0-3.957488 2.968116-6.925604 6.925604-6.925604h5.441546c3.957488 0 6.925604 2.968116 6.925604 6.925604v116.745894c0 3.957488-2.968116 6.925604-6.925604 6.925604z" fill="#F4F4F4" p-id="62295"></path><path d="M607.474396 615.884058H446.701449c-4.452174 0-8.409662-3.462802-8.409662-8.409662v-5.936232c0-4.452174 3.462802-8.409662 8.409662-8.409662h160.772947c4.452174 0 8.409662 3.462802 8.409662 8.409662v5.936232c0 4.452174-3.957488 8.409662-8.409662 8.409662z" fill="#F4F4F4" p-id="62296"></path></svg>